<mxfile host="app.diagrams.net" agent="Mozilla/5.0 (Windows NT 10.0; Win64; x64) AppleWebKit/537.36 (KHTML, like Gecko) Chrome/137.0.0.0 Safari/537.36" version="27.2.0" pages="3">
  <diagram name="P치gina-1" id="-VzGEQbuxoVh8vkqBesT">
    <mxGraphModel dx="786" dy="695" grid="1" gridSize="10" guides="1" tooltips="1" connect="1" arrows="1" fold="1" page="1" pageScale="1" pageWidth="827" pageHeight="1169" math="0" shadow="0">
      <root>
        <mxCell id="0" />
        <mxCell id="1" parent="0" />
        <mxCell id="boV97vQTtRB2om5b8dDA-1" value="Actor" style="shape=umlActor;verticalLabelPosition=bottom;verticalAlign=top;html=1;outlineConnect=0;" vertex="1" parent="1">
          <mxGeometry x="90" y="280" width="30" height="60" as="geometry" />
        </mxCell>
        <mxCell id="boV97vQTtRB2om5b8dDA-3" value="registrar usuario" style="ellipse;whiteSpace=wrap;html=1;" vertex="1" parent="1">
          <mxGeometry x="240" y="150" width="120" height="80" as="geometry" />
        </mxCell>
        <mxCell id="boV97vQTtRB2om5b8dDA-4" value="consultar par치metro" style="ellipse;whiteSpace=wrap;html=1;" vertex="1" parent="1">
          <mxGeometry x="240" y="260" width="120" height="80" as="geometry" />
        </mxCell>
        <mxCell id="boV97vQTtRB2om5b8dDA-5" value="actualizar parametro" style="ellipse;whiteSpace=wrap;html=1;" vertex="1" parent="1">
          <mxGeometry x="240" y="360" width="120" height="80" as="geometry" />
        </mxCell>
        <mxCell id="boV97vQTtRB2om5b8dDA-7" value="" style="endArrow=classic;html=1;rounded=0;entryX=0;entryY=0.5;entryDx=0;entryDy=0;" edge="1" parent="1" target="boV97vQTtRB2om5b8dDA-4">
          <mxGeometry width="50" height="50" relative="1" as="geometry">
            <mxPoint x="130" y="290" as="sourcePoint" />
            <mxPoint x="290" y="230" as="targetPoint" />
          </mxGeometry>
        </mxCell>
        <mxCell id="boV97vQTtRB2om5b8dDA-8" value="" style="endArrow=classic;html=1;rounded=0;entryX=0;entryY=0.5;entryDx=0;entryDy=0;exitX=1;exitY=0.3333333333333333;exitDx=0;exitDy=0;exitPerimeter=0;" edge="1" parent="1" source="boV97vQTtRB2om5b8dDA-1" target="boV97vQTtRB2om5b8dDA-3">
          <mxGeometry width="50" height="50" relative="1" as="geometry">
            <mxPoint x="140" y="250" as="sourcePoint" />
            <mxPoint x="290" y="230" as="targetPoint" />
          </mxGeometry>
        </mxCell>
        <mxCell id="boV97vQTtRB2om5b8dDA-10" value="" style="endArrow=classic;html=1;rounded=0;exitX=1;exitY=0.3333333333333333;exitDx=0;exitDy=0;exitPerimeter=0;entryX=0;entryY=0.375;entryDx=0;entryDy=0;entryPerimeter=0;" edge="1" parent="1" source="boV97vQTtRB2om5b8dDA-1" target="boV97vQTtRB2om5b8dDA-5">
          <mxGeometry width="50" height="50" relative="1" as="geometry">
            <mxPoint x="240" y="380" as="sourcePoint" />
            <mxPoint x="370" y="300" as="targetPoint" />
          </mxGeometry>
        </mxCell>
        <mxCell id="boV97vQTtRB2om5b8dDA-12" value="login" style="ellipse;whiteSpace=wrap;html=1;" vertex="1" parent="1">
          <mxGeometry x="490" y="290" width="120" height="80" as="geometry" />
        </mxCell>
        <mxCell id="boV97vQTtRB2om5b8dDA-15" value="&amp;lt;&amp;lt;include&amp;gt;&amp;gt;" style="html=1;verticalAlign=bottom;endArrow=open;dashed=1;endSize=8;curved=0;rounded=0;entryX=0;entryY=0.5;entryDx=0;entryDy=0;exitX=1;exitY=0.5;exitDx=0;exitDy=0;" edge="1" parent="1" source="boV97vQTtRB2om5b8dDA-4" target="boV97vQTtRB2om5b8dDA-12">
          <mxGeometry relative="1" as="geometry">
            <mxPoint x="350" y="560" as="sourcePoint" />
            <mxPoint x="270" y="560" as="targetPoint" />
          </mxGeometry>
        </mxCell>
        <mxCell id="boV97vQTtRB2om5b8dDA-16" value="&amp;lt;&amp;lt;include&amp;gt;&amp;gt;" style="html=1;verticalAlign=bottom;endArrow=open;dashed=1;endSize=8;curved=0;rounded=0;entryX=0;entryY=0.5;entryDx=0;entryDy=0;exitX=1.008;exitY=0.4;exitDx=0;exitDy=0;exitPerimeter=0;" edge="1" parent="1" source="boV97vQTtRB2om5b8dDA-5" target="boV97vQTtRB2om5b8dDA-12">
          <mxGeometry relative="1" as="geometry">
            <mxPoint x="450" y="280" as="sourcePoint" />
            <mxPoint x="580" y="280" as="targetPoint" />
          </mxGeometry>
        </mxCell>
      </root>
    </mxGraphModel>
  </diagram>
  <diagram id="l5LMu10dkaxK1_5G2RVV" name="P치gina-2">
    <mxGraphModel dx="786" dy="695" grid="1" gridSize="10" guides="1" tooltips="1" connect="1" arrows="1" fold="1" page="1" pageScale="1" pageWidth="827" pageHeight="1169" math="0" shadow="0">
      <root>
        <mxCell id="0" />
        <mxCell id="1" parent="0" />
        <mxCell id="xszsc-moYBnDq8dphjnh-1" value="Controller" style="shape=folder;fontStyle=1;spacingTop=10;tabWidth=40;tabHeight=14;tabPosition=left;html=1;whiteSpace=wrap;" vertex="1" parent="1">
          <mxGeometry x="140" y="200" width="130" height="100" as="geometry" />
        </mxCell>
        <mxCell id="xszsc-moYBnDq8dphjnh-5" value="Use" style="endArrow=open;endSize=12;dashed=1;html=1;rounded=0;entryX=0;entryY=0;entryDx=0;entryDy=57;entryPerimeter=0;" edge="1" parent="1" source="xszsc-moYBnDq8dphjnh-1" target="xszsc-moYBnDq8dphjnh-7">
          <mxGeometry width="160" relative="1" as="geometry">
            <mxPoint x="200" y="570" as="sourcePoint" />
            <mxPoint x="211.66666666666663" y="360" as="targetPoint" />
          </mxGeometry>
        </mxCell>
        <mxCell id="xszsc-moYBnDq8dphjnh-7" value="Service" style="shape=folder;fontStyle=1;spacingTop=10;tabWidth=40;tabHeight=14;tabPosition=left;html=1;whiteSpace=wrap;" vertex="1" parent="1">
          <mxGeometry x="360" y="190" width="130" height="100" as="geometry" />
        </mxCell>
        <mxCell id="xszsc-moYBnDq8dphjnh-8" value="repository" style="shape=folder;fontStyle=1;spacingTop=10;tabWidth=40;tabHeight=14;tabPosition=left;html=1;whiteSpace=wrap;" vertex="1" parent="1">
          <mxGeometry x="140" y="370" width="130" height="100" as="geometry" />
        </mxCell>
        <mxCell id="xszsc-moYBnDq8dphjnh-9" value="security" style="shape=folder;fontStyle=1;spacingTop=10;tabWidth=40;tabHeight=14;tabPosition=left;html=1;whiteSpace=wrap;" vertex="1" parent="1">
          <mxGeometry x="140" y="50" width="130" height="100" as="geometry" />
        </mxCell>
        <mxCell id="xszsc-moYBnDq8dphjnh-10" value="Access" style="endArrow=open;endSize=12;dashed=1;html=1;rounded=0;entryX=0.5;entryY=1;entryDx=0;entryDy=0;entryPerimeter=0;exitX=0;exitY=0;exitDx=85;exitDy=14;exitPerimeter=0;" edge="1" parent="1" source="xszsc-moYBnDq8dphjnh-1" target="xszsc-moYBnDq8dphjnh-9">
          <mxGeometry width="160" relative="1" as="geometry">
            <mxPoint x="340" y="240" as="sourcePoint" />
            <mxPoint x="430" y="240" as="targetPoint" />
          </mxGeometry>
        </mxCell>
        <mxCell id="xszsc-moYBnDq8dphjnh-11" value="Use" style="endArrow=open;endSize=12;dashed=1;html=1;rounded=0;entryX=0;entryY=0;entryDx=85;entryDy=14;entryPerimeter=0;exitX=0.5;exitY=1;exitDx=0;exitDy=0;exitPerimeter=0;" edge="1" parent="1" source="xszsc-moYBnDq8dphjnh-7" target="xszsc-moYBnDq8dphjnh-8">
          <mxGeometry width="160" relative="1" as="geometry">
            <mxPoint x="130" y="410" as="sourcePoint" />
            <mxPoint x="220" y="410" as="targetPoint" />
            <Array as="points">
              <mxPoint x="425" y="340" />
              <mxPoint x="225" y="340" />
            </Array>
          </mxGeometry>
        </mxCell>
        <mxCell id="xszsc-moYBnDq8dphjnh-12" value="util" style="shape=folder;fontStyle=1;spacingTop=10;tabWidth=40;tabHeight=14;tabPosition=left;html=1;whiteSpace=wrap;" vertex="1" parent="1">
          <mxGeometry x="430" y="380" width="130" height="100" as="geometry" />
        </mxCell>
        <mxCell id="xszsc-moYBnDq8dphjnh-13" value="Use" style="endArrow=open;endSize=12;dashed=1;html=1;rounded=0;entryX=0;entryY=0;entryDx=85;entryDy=14;entryPerimeter=0;" edge="1" parent="1" target="xszsc-moYBnDq8dphjnh-12">
          <mxGeometry width="160" relative="1" as="geometry">
            <mxPoint x="420" y="290" as="sourcePoint" />
            <mxPoint x="460" y="424" as="targetPoint" />
            <Array as="points">
              <mxPoint x="420" y="340" />
              <mxPoint x="515" y="340" />
            </Array>
          </mxGeometry>
        </mxCell>
      </root>
    </mxGraphModel>
  </diagram>
  <diagram id="xCoYrjDz7-dUIPZTla_K" name="P치gina-3">
    <mxGraphModel dx="786" dy="695" grid="1" gridSize="10" guides="1" tooltips="1" connect="1" arrows="1" fold="1" page="1" pageScale="1" pageWidth="827" pageHeight="1169" math="0" shadow="0">
      <root>
        <mxCell id="0" />
        <mxCell id="1" parent="0" />
        <mxCell id="WfddzlaAuoYm55UrmhK5-1" value="Actor" style="shape=umlActor;verticalLabelPosition=bottom;verticalAlign=top;html=1;" vertex="1" parent="1">
          <mxGeometry x="70" y="270" width="30" height="60" as="geometry" />
        </mxCell>
        <mxCell id="WfddzlaAuoYm55UrmhK5-2" value="" style="shape=umlLifeline;perimeter=lifelinePerimeter;whiteSpace=wrap;html=1;container=1;dropTarget=0;collapsible=0;recursiveResize=0;outlineConnect=0;portConstraint=eastwest;newEdgeStyle={&quot;curved&quot;:0,&quot;rounded&quot;:0};participant=umlEntity;" vertex="1" parent="1">
          <mxGeometry x="510" y="136" width="40" height="300" as="geometry" />
        </mxCell>
        <mxCell id="WfddzlaAuoYm55UrmhK5-19" value="" style="html=1;points=[[0,0,0,0,5],[0,1,0,0,-5],[1,0,0,0,5],[1,1,0,0,-5]];perimeter=orthogonalPerimeter;outlineConnect=0;targetShapes=umlLifeline;portConstraint=eastwest;newEdgeStyle={&quot;curved&quot;:0,&quot;rounded&quot;:0};" vertex="1" parent="WfddzlaAuoYm55UrmhK5-2">
          <mxGeometry x="15" y="194" width="10" height="36" as="geometry" />
        </mxCell>
        <mxCell id="WfddzlaAuoYm55UrmhK5-3" value="" style="shape=umlLifeline;perimeter=lifelinePerimeter;whiteSpace=wrap;html=1;container=1;dropTarget=0;collapsible=0;recursiveResize=0;outlineConnect=0;portConstraint=eastwest;newEdgeStyle={&quot;curved&quot;:0,&quot;rounded&quot;:0};participant=umlBoundary;" vertex="1" parent="1">
          <mxGeometry x="170" y="150" width="50" height="300" as="geometry" />
        </mxCell>
        <mxCell id="WfddzlaAuoYm55UrmhK5-13" value="" style="html=1;points=[[0,0,0,0,5],[0,1,0,0,-5],[1,0,0,0,5],[1,1,0,0,-5]];perimeter=orthogonalPerimeter;outlineConnect=0;targetShapes=umlLifeline;portConstraint=eastwest;newEdgeStyle={&quot;curved&quot;:0,&quot;rounded&quot;:0};" vertex="1" parent="WfddzlaAuoYm55UrmhK5-3">
          <mxGeometry x="20" y="80" width="10" height="180" as="geometry" />
        </mxCell>
        <mxCell id="WfddzlaAuoYm55UrmhK5-14" value="crear usuario" style="html=1;verticalAlign=bottom;endArrow=block;curved=0;rounded=0;entryX=0;entryY=0;entryDx=0;entryDy=5;" edge="1" target="WfddzlaAuoYm55UrmhK5-13" parent="WfddzlaAuoYm55UrmhK5-3">
          <mxGeometry relative="1" as="geometry">
            <mxPoint x="-50" y="85" as="sourcePoint" />
          </mxGeometry>
        </mxCell>
        <mxCell id="WfddzlaAuoYm55UrmhK5-15" value="informaci칩n usuario" style="html=1;verticalAlign=bottom;endArrow=open;dashed=1;endSize=8;curved=0;rounded=0;exitX=0;exitY=1;exitDx=0;exitDy=-5;" edge="1" source="WfddzlaAuoYm55UrmhK5-13" parent="WfddzlaAuoYm55UrmhK5-3">
          <mxGeometry relative="1" as="geometry">
            <mxPoint x="-60" y="255" as="targetPoint" />
          </mxGeometry>
        </mxCell>
        <mxCell id="WfddzlaAuoYm55UrmhK5-5" value="" style="shape=umlLifeline;perimeter=lifelinePerimeter;whiteSpace=wrap;html=1;container=1;dropTarget=0;collapsible=0;recursiveResize=0;outlineConnect=0;portConstraint=eastwest;newEdgeStyle={&quot;curved&quot;:0,&quot;rounded&quot;:0};participant=umlControl;" vertex="1" parent="1">
          <mxGeometry x="317.5" y="140" width="40" height="300" as="geometry" />
        </mxCell>
        <mxCell id="WfddzlaAuoYm55UrmhK5-16" value="" style="html=1;points=[[0,0,0,0,5],[0,1,0,0,-5],[1,0,0,0,5],[1,1,0,0,-5]];perimeter=orthogonalPerimeter;outlineConnect=0;targetShapes=umlLifeline;portConstraint=eastwest;newEdgeStyle={&quot;curved&quot;:0,&quot;rounded&quot;:0};" vertex="1" parent="WfddzlaAuoYm55UrmhK5-5">
          <mxGeometry x="15.5" y="100" width="10" height="150" as="geometry" />
        </mxCell>
        <mxCell id="WfddzlaAuoYm55UrmhK5-7" value="Controller" style="text;align=center;fontStyle=1;verticalAlign=middle;spacingLeft=3;spacingRight=3;strokeColor=none;rotatable=0;points=[[0,0.5],[1,0.5]];portConstraint=eastwest;html=1;" vertex="1" parent="1">
          <mxGeometry x="155" y="114" width="80" height="26" as="geometry" />
        </mxCell>
        <mxCell id="WfddzlaAuoYm55UrmhK5-8" value="Service Usuario" style="text;align=center;fontStyle=1;verticalAlign=middle;spacingLeft=3;spacingRight=3;strokeColor=none;rotatable=0;points=[[0,0.5],[1,0.5]];portConstraint=eastwest;html=1;" vertex="1" parent="1">
          <mxGeometry x="284" y="114" width="80" height="26" as="geometry" />
        </mxCell>
        <mxCell id="WfddzlaAuoYm55UrmhK5-17" value="crear usuario" style="html=1;verticalAlign=bottom;endArrow=block;curved=0;rounded=0;entryX=0;entryY=0;entryDx=0;entryDy=5;" edge="1" target="WfddzlaAuoYm55UrmhK5-16" parent="1" source="WfddzlaAuoYm55UrmhK5-3">
          <mxGeometry relative="1" as="geometry">
            <mxPoint x="339" y="225" as="sourcePoint" />
          </mxGeometry>
        </mxCell>
        <mxCell id="WfddzlaAuoYm55UrmhK5-9" value="repository" style="text;align=center;fontStyle=1;verticalAlign=middle;spacingLeft=3;spacingRight=3;strokeColor=none;rotatable=0;points=[[0,0.5],[1,0.5]];portConstraint=eastwest;html=1;" vertex="1" parent="1">
          <mxGeometry x="490" y="112" width="80" height="26" as="geometry" />
        </mxCell>
        <mxCell id="WfddzlaAuoYm55UrmhK5-18" value="informaci칩n usuario" style="html=1;verticalAlign=bottom;endArrow=open;dashed=1;endSize=8;curved=0;rounded=0;exitX=0;exitY=1;exitDx=0;exitDy=-5;" edge="1" source="WfddzlaAuoYm55UrmhK5-16" parent="1" target="WfddzlaAuoYm55UrmhK5-3">
          <mxGeometry relative="1" as="geometry">
            <mxPoint x="339" y="295" as="targetPoint" />
          </mxGeometry>
        </mxCell>
        <mxCell id="WfddzlaAuoYm55UrmhK5-20" value="guardar usuario" style="html=1;verticalAlign=bottom;endArrow=block;curved=0;rounded=0;entryX=0;entryY=0;entryDx=0;entryDy=5;" edge="1" parent="1">
          <mxGeometry relative="1" as="geometry">
            <mxPoint x="343" y="336" as="sourcePoint" />
            <mxPoint x="525" y="336" as="targetPoint" />
            <mxPoint as="offset" />
          </mxGeometry>
        </mxCell>
        <mxCell id="WfddzlaAuoYm55UrmhK5-21" value="usuario guardado" style="html=1;verticalAlign=bottom;endArrow=open;dashed=1;endSize=8;curved=0;rounded=0;exitX=0;exitY=1;exitDx=0;exitDy=-5;" edge="1" source="WfddzlaAuoYm55UrmhK5-19" parent="1" target="WfddzlaAuoYm55UrmhK5-16">
          <mxGeometry relative="1" as="geometry">
            <mxPoint x="350" y="361" as="targetPoint" />
          </mxGeometry>
        </mxCell>
        <mxCell id="WfddzlaAuoYm55UrmhK5-22" value="" style="shape=umlLifeline;perimeter=lifelinePerimeter;whiteSpace=wrap;html=1;container=1;dropTarget=0;collapsible=0;recursiveResize=0;outlineConnect=0;portConstraint=eastwest;newEdgeStyle={&quot;curved&quot;:0,&quot;rounded&quot;:0};participant=umlControl;" vertex="1" parent="1">
          <mxGeometry x="413.5" y="140" width="40" height="300" as="geometry" />
        </mxCell>
        <mxCell id="WfddzlaAuoYm55UrmhK5-23" value="" style="html=1;points=[[0,0,0,0,5],[0,1,0,0,-5],[1,0,0,0,5],[1,1,0,0,-5]];perimeter=orthogonalPerimeter;outlineConnect=0;targetShapes=umlLifeline;portConstraint=eastwest;newEdgeStyle={&quot;curved&quot;:0,&quot;rounded&quot;:0};" vertex="1" parent="WfddzlaAuoYm55UrmhK5-22">
          <mxGeometry x="15.5" y="100" width="10" height="70" as="geometry" />
        </mxCell>
        <mxCell id="WfddzlaAuoYm55UrmhK5-24" value="Service JWT" style="text;align=center;fontStyle=1;verticalAlign=middle;spacingLeft=3;spacingRight=3;strokeColor=none;rotatable=0;points=[[0,0.5],[1,0.5]];portConstraint=eastwest;html=1;" vertex="1" parent="1">
          <mxGeometry x="393.5" y="114" width="80" height="26" as="geometry" />
        </mxCell>
        <mxCell id="WfddzlaAuoYm55UrmhK5-25" value="crear JWT" style="html=1;verticalAlign=bottom;endArrow=block;curved=0;rounded=0;entryX=0;entryY=0;entryDx=0;entryDy=5;entryPerimeter=0;" edge="1" parent="1">
          <mxGeometry relative="1" as="geometry">
            <mxPoint x="337" y="265" as="sourcePoint" />
            <mxPoint x="429" y="265" as="targetPoint" />
          </mxGeometry>
        </mxCell>
        <mxCell id="WfddzlaAuoYm55UrmhK5-26" value="JWT creado" style="html=1;verticalAlign=bottom;endArrow=open;dashed=1;endSize=8;curved=0;rounded=0;" edge="1" parent="1">
          <mxGeometry relative="1" as="geometry">
            <mxPoint x="343" y="298" as="targetPoint" />
            <mxPoint x="429" y="298" as="sourcePoint" />
          </mxGeometry>
        </mxCell>
      </root>
    </mxGraphModel>
  </diagram>
</mxfile>
